<?xml version="1.0" encoding="UTF-8"?><svg id="Capa_1" xmlns="http://www.w3.org/2000/svg" xmlns:xlink="http://www.w3.org/1999/xlink" viewBox="0 0 511.66 512"><defs><linearGradient id="Degradado_sin_nombre_6" x1="57.74" y1="257.11" x2="453.91" y2="257.11" gradientUnits="userSpaceOnUse"><stop offset="0" stop-color="#fff"/><stop offset="1" stop-color="#ededed"/></linearGradient><linearGradient id="Degradado_sin_nombre_6-2" x1="172.94" y1="252.51" x2="356.6" y2="252.51" xlink:href="#Degradado_sin_nombre_6"/></defs><path d="M255.6,455.17c110.28.2,195.21-88.43,198.23-192.07,3.26-111.83-86.68-204.26-197.83-204.06-109.52-.09-198.03,88.08-198.25,197.49-.22,109.91,87.75,198.44,197.86,198.64ZM162.3,302.65c-32.49-69.36,7.23-147.61,82.48-162.15,64.99-12.56,129.05,36.86,133.41,102.93,4.49,68.03-47.8,124.13-115.02,123.14-16.64-.24-32.55-4.12-47.72-11.2-2.9-1.36-6.94-1.7-10.07-.93-18.42,4.55-36.73,9.58-56.76,14.89,5.23-19.71,10.22-37.73,14.66-55.88.82-3.35.46-7.68-.99-10.79Z" fill="url(#Degradado_sin_nombre_6)" stroke-width="0"/><path d="M186.58,311.23c-1.5,8.57-4.22,16.92-6.86,26.95,10.26-2.66,19.07-5.36,28.06-7.08,3.62-.69,8.22-.29,11.39,1.43,21.04,11.43,43.13,14.88,66.45,9.62,47.97-10.82,78.7-58.54,69.28-107.32-9.27-47.99-56.19-81-104.08-73.22-64.02,10.41-97.36,79.89-65.88,136.81,1.96,3.54,2.35,8.71,1.64,12.81ZM219.52,204c7.25-5.81,14.96-4.64,19.57,3.28,2.82,4.85,5.92,10.08,6.64,15.44.61,4.54-.76,10.5-3.54,14.05-4.05,5.19-3.63,8.7-.16,13.55,7.96,11.15,17.94,19.66,30.31,25.57,4.76,2.27,7.8,1.97,10.9-2.79,7.22-11.1,11.34-11.89,22.83-5.5.9.5,1.79,1.01,2.68,1.52,15.09,8.64,15.27,21.69-.39,29.82-5.79,3-13.7,5.1-19.81,3.79-36.55-7.88-61.51-30.4-76.57-64.22-1.64-3.67-2.02-7.91-2.62-10.38.54-10.43,3.01-18.39,10.17-24.12Z" fill="url(#Degradado_sin_nombre_6-2)" stroke-width="0"/></svg>